<?xml version="1.0" encoding="utf-8"?>
<!-- Generator: Adobe Illustrator 19.1.0, SVG Export Plug-In . SVG Version: 6.00 Build 0)  -->
<svg version="1.1" id="DESIGNS" xmlns="http://www.w3.org/2000/svg" xmlns:xlink="http://www.w3.org/1999/xlink" x="0px" y="0px"
	 width="32px" height="32px" viewBox="0 0 32 32" style="enable-background:new 0 0 32 32;" xml:space="preserve">
<style type="text/css">
	.feather_een{fill:#111918;}
	.st0{fill:#0B1719;}
</style>
<path class="feather_een" d="M13,9c0,0.552-0.448,1-1,1s-1-0.448-1-1c0-0.552,0.448-1,1-1S13,8.448,13,9z M25.105,20.592
	c0.189,0.487,0.386,1.44,0.393,3.307C26.407,24.633,27,25.742,27,27c0,2.209-1.791,4-4,4c-1.245,0-2.343-0.58-3.076-1.472
	c-1.27,0.3-2.596,0.455-3.924,0.455c-1.328,0-2.654-0.155-3.924-0.455C11.343,30.42,10.245,31,9,31c-2.209,0-4-1.791-4-4
	c0-1.258,0.593-2.367,1.502-3.101c0.008-1.867,0.204-2.82,0.393-3.307C5.774,20.009,5,18.85,5,17.499
	c0-1.279,0.693-2.386,1.716-2.996l-0.055-0.354C6.554,13.457,6.5,12.733,6.5,12c0-1.229,0.151-2.361,0.429-3.393
	C5.788,8.033,5,6.865,5,5.5C5,3.567,6.567,2,8.5,2c1.023,0,1.921,0.459,2.56,1.16C12.444,2.407,14.103,2,16,2s3.556,0.407,4.94,1.16
	C21.579,2.459,22.477,2,23.5,2C25.433,2,27,3.567,27,5.5c0,1.365-0.788,2.533-1.929,3.107C25.349,9.639,25.5,10.771,25.5,12
	c0,0.712-0.051,1.415-0.152,2.09l-0.062,0.414C26.308,15.115,27,16.222,27,17.499C27,18.85,26.226,20.009,25.105,20.592z
	 M21.798,3.7c1.332,0.954,2.339,2.286,2.962,3.941C25.498,7.208,26,6.416,26,5.5C26,4.122,24.878,3,23.5,3
	C22.835,3,22.244,3.274,21.798,3.7z M7.24,7.641C7.863,5.986,8.87,4.654,10.202,3.7C9.756,3.274,9.165,3,8.5,3
	C7.122,3,6,4.122,6,5.5C6,6.416,6.502,7.208,7.24,7.641z M8.5,19.999c1.378,0,2.5-1.121,2.5-2.5c0-1.378-1.122-2.5-2.5-2.5
	S6,16.121,6,17.499C6,18.878,7.122,19.999,8.5,19.999z M12,27c0-1.654-1.346-3-3-3s-3,1.346-3,3c0,1.654,1.346,3,3,3
	c1.143,0,2.126-0.649,2.633-1.592l0.004-0.015l0.004,0.001C11.862,27.976,12,27.506,12,27z M19,27c0-2.209,1.791-4,4-4
	c0.527,0,1.027,0.108,1.488,0.293c-0.046-1.492-0.226-2.131-0.319-2.361c-0.217,0.042-0.439,0.067-0.668,0.067
	c-1.933,0-3.5-1.567-3.5-3.5c0-1.933,1.567-3.5,3.5-3.5c0.289,0,0.565,0.045,0.833,0.111l0.025-0.169
	C24.453,13.315,24.5,12.662,24.5,12c0-5.552-3.257-9-8.5-9s-8.5,3.448-8.5,9c0,0.683,0.05,1.354,0.15,1.997l0.018,0.113
	c0.268-0.066,0.544-0.111,0.833-0.111c1.933,0,3.5,1.567,3.5,3.5c0,1.933-1.567,3.5-3.5,3.5c-0.229,0-0.452-0.025-0.668-0.067
	c-0.093,0.229-0.273,0.869-0.319,2.361C7.973,23.108,8.473,23,9,23c2.209,0,4,1.791,4,4c0,0.581-0.13,1.13-0.353,1.629
	c2.184,0.465,4.524,0.465,6.706,0C19.13,28.13,19,27.581,19,27z M23,24c-1.654,0-3,1.346-3,3c0,0.506,0.138,0.976,0.36,1.394
	l0.004-0.001l0.004,0.015C20.874,29.351,21.857,30,23,30c1.654,0,3-1.346,3-3C26,25.346,24.654,24,23,24z M26,17.499
	c0-1.378-1.122-2.5-2.5-2.5s-2.5,1.122-2.5,2.5c0,1.379,1.122,2.5,2.5,2.5S26,18.878,26,17.499z M21,9c0-0.552-0.448-1-1-1
	s-1,0.448-1,1c0,0.552,0.448,1,1,1S21,9.552,21,9z M18,13c0,1.105-0.895,2-2,2s-2-0.895-2-2c0-1.105,0.895-2,2-2S18,11.895,18,13z
	 M17,13c0-0.551-0.449-1-1-1s-1,0.449-1,1s0.449,1,1,1S17,13.551,17,13z"/>
</svg>
