<svg xmlns="http://www.w3.org/2000/svg" xml:space="preserve" width="32" height="32"><path d="M10 17.5a2.5 2.5 0 1 1-5 0 2.5 2.5 0 0 1 5 0M24.5 15a2.5 2.5 0 1 0 0 5 2.5 2.5 0 0 0 0-5m-1 9a3.5 3.5 0 1 0 0 7 3.5 3.5 0 0 0 0-7m-15 0a3.5 3.5 0 1 0 0 7 3.5 3.5 0 0 0 0-7M16 12a1 1 0 1 0 0 2 1 1 0 0 0 0-2m9.07-3.4q.43 1.56.43 3.4 0 1.07-.15 2.09v.03a3.5 3.5 0 1 0-.13 6.81c.13.5.24 1.29.27 2.56q-.9-.47-1.99-.49a4.45 4.45 0 0 0-3.95 6.6 17 17 0 0 1-7.1 0A4.45 4.45 0 0 0 8.5 23c-.72 0-1.39.19-2 .49a11 11 0 0 1 .29-2.56q.35.07.71.07a3.5 3.5 0 0 0 0-7q-.44.01-.84.11a14 14 0 0 1 .27-5.5A3.5 3.5 0 0 1 5 5.5 3.5 3.5 0 0 1 8.5 2c1.02 0 1.92.46 2.56 1.16Q13.14 2.02 16 2c2.86-.02 3.56.4 4.94 1.16A3.5 3.5 0 0 1 23.5 2 3.5 3.5 0 0 1 27 5.5c0 1.37-.79 2.53-1.93 3.1M13 9a1 1 0 1 0-2 0 1 1 0 0 0 2 0m5 4a2 2 0 1 0-4 0 2 2 0 0 0 4 0m3-4a1 1 0 1 0-2 0 1 1 0 0 0 2 0" style="fill:#111918"/></svg>