<svg xmlns="http://www.w3.org/2000/svg" xml:space="preserve" style="fill-rule:evenodd;clip-rule:evenodd;stroke-linejoin:round;stroke-miterlimit:2" viewBox="0 0 22 16"><path d="M25.29 14.5a13.7 13.7 0 0 1-9.27 3.46c-3.4 0-6.81-1.15-9.3-3.46l-.06-.35a14 14 0 0 1 .27-5.54A3.5 3.5 0 0 1 5 5.5 3.5 3.5 0 0 1 8.5 2c1.02 0 1.92.46 2.56 1.16A10 10 0 0 1 16 2q2.86.01 4.94 1.16A3.5 3.5 0 0 1 23.5 2 3.5 3.5 0 0 1 27 5.5c0 1.37-.79 2.53-1.93 3.1q.43 1.56.43 3.4c0 .71-.21 2.5-.21 2.5m-3.5-10.8a8.4 8.4 0 0 1 2.97 3.94A2.48 2.48 0 1 0 21.8 3.7M7.25 7.64A8.4 8.4 0 0 1 10.2 3.7 2.5 2.5 0 0 0 8.5 3a2.48 2.48 0 0 0-1.26 4.64M7.65 14s3.6 3 8.38 3 8.33-3.06 8.33-3.06q.15-.94.14-1.94c0-5.55-3.26-9-8.5-9s-8.5 3.45-8.5 9q0 1.02.15 2M18 13a2 2 0 1 1-4 0 2 2 0 0 1 4 0m-1 0a1 1 0 1 0-2 0 1 1 0 0 0 2 0" style="fill:#111918;fill-rule:nonzero" transform="translate(-5 -2)"/><path d="M13 9a1 1 0 0 1-2 0l-.01-1c0-.57.5-1 1.01-1 .54-.02.99.39 1 1z" style="fill:#111918;fill-rule:nonzero" transform="translate(3 -2)"/><path d="M13 9a1 1 0 0 1-2 0l-.01-1c0-.57.5-1 1.01-1 .54-.02.99.39 1 1z" style="fill:#111918;fill-rule:nonzero" transform="translate(-5 -2)"/></svg>